<svg version="1.2" xmlns="http://www.w3.org/2000/svg" viewBox="0 0 439 384" width="439" height="384">
	<title>Forma 4</title>
	<style>
		.s0 { fill: #000000 } 
	</style>
	<path id="Forma 1" class="s0" d="m255 81.4c18.9-2.7-55 316.9-150 301.6-44.5-7.2-121.6-114.6-101.8-120.6 12.1-3.8 50 45.3 87.6 41.1 107.1-12.1 148.7-219.9 164.2-222.1zm6 0.5c10.8 8.4 5.4 87.8 52.7 111.5 19.3 9.7 44.3-8.5 50.4 1.3 7 11.4-36.2 28-35.8 46.4 0.7 37.6 108.5 25.7 110.1 46.5 1.8 23.5-85.4 56.2-128.7 41.1-80.6-28.2-70.7-264.1-48.7-246.8zm-155.6 0c91.8-22.9 187.4-9.6 193.7-6.6 7.3 3.5-211.9 40.5-228.2 23.9-2.8-2.8 16.2-12.7 34.5-17.3zm263.6-45.9c3.5 6 2 23-7.5 33.4-14.2 15.5-46.3 10.7-51 6-6.5-6.5 51.2-51.8 58.5-39.4zm-76.5 8.4c-6 11.8-28.2 19.4-40.5 11.6-11.1-7.1-15.3-22.6-9-37 5.2-12 15.3-18.8 26-18 16.6 1.2 30.5 29.5 23.5 43.4z"/>
	<path id="Forma 1" class="s0" d="m255 81.4c18.9-2.7-55 316.9-150 301.6-44.5-7.2-121.6-114.6-101.8-120.6 12.1-3.8 50 45.3 87.6 41.1 107.1-12.1 148.7-219.9 164.2-222.1zm6 0.5c10.8 8.4 5.4 87.8 52.7 111.5 19.3 9.7 44.3-8.5 50.4 1.3 7 11.4-36.2 28-35.8 46.4 0.7 37.6 108.5 25.7 110.1 46.5 1.8 23.5-85.4 56.2-128.7 41.1-80.6-28.2-70.7-264.1-48.7-246.8zm-155.6 0c91.8-22.9 187.4-9.6 193.7-6.6 7.3 3.5-211.9 40.5-228.2 23.9-2.8-2.8 16.2-12.7 34.5-17.3zm263.6-45.9c3.5 6 2 23-7.5 33.4-14.2 15.5-46.3 10.7-51 6-6.5-6.5 51.2-51.8 58.5-39.4zm-76.5 8.4c-6 11.8-28.2 19.4-40.5 11.6-11.1-7.1-15.3-22.6-9-37 5.2-12 15.3-18.8 26-18 16.6 1.2 30.5 29.5 23.5 43.4z"/>
	<path id="Forma 2" class="s0" d="m242-199"/>
</svg>