<svg version="1.2" xmlns="http://www.w3.org/2000/svg" viewBox="0 0 1080 1080" width="540" height="540">
	<title>Alite</title>
	<style>
		.s0 { fill: #009999 } 
		.s1 { fill: #000000 } 
	</style>
	<path id="Forma 1" class="s0" d="m353.5 757.9c51-22.3 53.9-24.4 95.2-62.5 173.8-160.8 262.3-360.1 287.9-385.7 40.4-40.3-146.1 610-422.7 631-101.8 7.7-243.4-91.5-237.4-137.1 6.3-47.1 150.9 9.3 277-45.7z"/>
	<path id="Forma 2" class="s0" d="m760.9 521.6c25 16.7 68.8-18.2 83.7-1.7 20.1 22.1-52.7 58-48.8 101.8 8.9 100.2 213 88 207.6 152.7-5.7 66.7-170.3 130.7-242.5 108.8-152.6-46.3-3.5-612.5-2.2-564.5"/>
	<path id="Forma 3" class="s0" d="m350 300.3c52.9-36.1 564.6-36.6 550.4-28.8-12.3 6.7-239.9 60.5-474.8 47.9"/>
	<path id="Forma 4" class="s0" d="m985.9 193.4c3.8-2.4 8.3-1.7 10.2 1.2 10 14.7 4.9 34.8-10.2 51.5-14.6 16.1-40.3 19.5-48.1 15.2"/>
	<path id="Forma 5" class="s0" d="m778.2 141c26.6 11.1 37.1 54.6 22.2 76.6-12.4 18.4-45.3 25.1-62.4 13.1-20.7-14.5-23.8-59-2.1-80.5 12.1-12.1 27.3-15.5 42.3-9.2z"/>
	<path id="Forma 6" class="s1" d=""/>
</svg>